We live together -> Celeste Star Hayden Winters Shyla Jennings - Wet ones


Cast
Celeste Star Hayden Winters Shyla Jennings

Thu January 06, 2011
Celeste wanted to spend the day at the pier with Hayden and Shyla a but the horrible weather prevented them from enjoying the scenery. The rain was relentless, clear skies were no where in sight, so Celeste invited the girls back to her place. Since they were already wet, Hayden suggested that they take a shower together. They all agreed and immediately undressed each other. The girls caressed and kissed each other under the warm water before starting the pussy licking action.

General
Complete name : We live together - Celeste Star Hayden Winters Shyla Jennings - Wet ones.wmv
Format : Windows Media
File size : 421 MiB
Duration : 36mn 58s
Overall bit rate : 1 590 Kbps
Maximum Overall bit rate : 1 569 Kbps
Encoded date : UTC 2011-01-03 23:35:06.000

Video
ID : 1
Format : VC-1
Format profile : MP
Codec ID : WMV3
Codec ID/Info : Windows Media Video 9
Codec ID/Hint : WMV3
Description of the codec : Windows Media Video 9 - 2-pass VBR
Duration : 36mn 58s
Bit rate : 1 500 Kbps
Width : 768 pixels
Height : 432 pixels
Display aspect ratio : 16:9
Frame rate : 29.970 fps
Bit depth : 8 bits
Scan type : Progressive
Compression mode : Lossy
Bits/(Pixel*Frame) : 0.151
Stream size : 397 MiB (94%)

Audio
ID : 2
Format : WMA
Format version : Version 2
Codec ID : 161
Codec ID/Info : Windows Media Audio
Description of the codec : Windows Media Audio 9 - 48 kbps, 44 kHz, mono CBR
Duration : 36mn 58s
Bit rate : 48.0 Kbps
Channel(s) : 1 channel
Sampling rate : 44.1 KHz
Bit depth : 16 bits
Stream size : 12.7 MiB (3%) 